<?xml version="1.0" standalone="no"?>
<!DOCTYPE svg PUBLIC "-//W3C//DTD SVG 20010904//EN"
 "http://www.w3.org/TR/2001/REC-SVG-20010904/DTD/svg10.dtd">
<svg version="1.0" xmlns="http://www.w3.org/2000/svg"
 width="270.000000pt" height="270.000000pt" viewBox="0 0 270.000000 270.000000"
 preserveAspectRatio="xMidYMid meet">
<metadata>
Created by potrace 1.14, written by Peter Selinger 2001-2017
</metadata>
<g transform="translate(0.000000,270.000000) scale(0.100000,-0.100000)"
fill="#000000" stroke="none">
<path d="M1165 2689 c-316 -45 -621 -210 -830 -450 -87 -100 -151 -197 -206
-314 -92 -195 -129 -376 -125 -600 5 -229 42 -379 141 -580 169 -341 480 -595
855 -699 238 -66 538 -57 781 24 104 34 278 125 362 189 77 57 188 159 237
217 142 169 252 397 296 616 23 116 27 339 8 461 -85 555 -505 1001 -1054
1117 -115 25 -354 34 -465 19z m428 -113 c495 -100 875 -479 983 -981 21 -97
27 -364 10 -435 -4 -14 -9 -43 -12 -65 -10 -63 -59 -206 -102 -292 -180 -368
-542 -633 -942 -690 -98 -14 -338 -8 -425 11 -488 106 -855 462 -971 943 -58
239 -36 525 59 753 88 215 228 394 417 536 142 107 405 215 564 231 28 3 53 7
55 9 11 10 294 -6 364 -20z"/>
<path d="M999 1669 c-10 -10 -19 -24 -19 -30 0 -6 43 -131 95 -278 53 -146 98
-273 101 -281 3 -8 4 -15 3 -15 -1 0 8 -19 19 -41 25 -49 55 -61 83 -33 10 10
19 25 19 32 0 10 -95 285 -117 337 -3 8 -7 20 -9 25 -9 35 -98 272 -106 281
-17 22 -49 23 -69 3z"/>
<path d="M1686 1671 c-8 -9 -50 -113 -92 -231 -42 -118 -81 -226 -86 -240 -11
-28 -7 -35 -72 138 -22 57 -33 73 -52 78 -27 7 -64 -18 -64 -42 0 -30 133
-370 151 -386 22 -19 55 -13 69 11 5 10 59 156 120 326 89 248 109 314 101
331 -12 28 -56 36 -75 15z"/>
<path d="M458 1628 c-20 -32 -19 -598 1 -622 18 -22 67 -21 77 2 4 9 9 127 10
262 1 135 2 253 3 263 1 15 16 17 171 17 156 0 172 2 190 20 19 19 18 40 -3
68 -7 9 -64 12 -222 12 -210 0 -213 0 -227 -22z"/>
<path d="M1827 1630 c-18 -25 -11 -57 14 -71 11 -5 103 -8 226 -7 l207 3 13
25 c10 20 10 29 -1 45 -13 19 -26 20 -229 23 -209 2 -216 2 -230 -18z"/>
<path d="M2016 1454 c-19 -18 -18 -2 -18 -241 -1 -208 2 -223 52 -223 44 0 49
26 48 243 0 182 -1 200 -19 218 -23 23 -42 24 -63 3z"/>
<path d="M654 1339 c-27 -10 -36 -33 -24 -64 10 -26 24 -30 100 -27 53 2 80
53 44 83 -19 15 -89 20 -120 8z"/>
</g>
</svg>
