<svg xmlns="http://www.w3.org/2000/svg">
	<symbol id="theme" viewBox="0 0 20 20">
		<path d="M10 5.45455C7.49091 5.45455 5.45455 7.49091 5.45455 10C5.45455 12.5091 7.49091 14.5455 10 14.5455C12.5091 14.5455 14.5455 12.5091 14.5455 10C14.5455 7.49091 12.5091 5.45455 10 5.45455ZM0.909091 10.9091H2.72727C3.22727 10.9091 3.63636 10.5 3.63636 10C3.63636 9.5 3.22727 9.09091 2.72727 9.09091H0.909091C0.409091 9.09091 0 9.5 0 10C0 10.5 0.409091 10.9091 0.909091 10.9091ZM17.2727 10.9091H19.0909C19.5909 10.9091 20 10.5 20 10C20 9.5 19.5909 9.09091 19.0909 9.09091H17.2727C16.7727 9.09091 16.3636 9.5 16.3636 10C16.3636 10.5 16.7727 10.9091 17.2727 10.9091ZM9.09091 0.909091V2.72727C9.09091 3.22727 9.5 3.63636 10 3.63636C10.5 3.63636 10.9091 3.22727 10.9091 2.72727V0.909091C10.9091 0.409091 10.5 0 10 0C9.5 0 9.09091 0.409091 9.09091 0.909091ZM9.09091 17.2727V19.0909C9.09091 19.5909 9.5 20 10 20C10.5 20 10.9091 19.5909 10.9091 19.0909V17.2727C10.9091 16.7727 10.5 16.3636 10 16.3636C9.5 16.3636 9.09091 16.7727 9.09091 17.2727ZM4.53636 3.25455C4.18182 2.9 3.6 2.9 3.25455 3.25455C2.9 3.60909 2.9 4.19091 3.25455 4.53636L4.21818 5.5C4.57273 5.85455 5.15455 5.85455 5.5 5.5C5.84546 5.14545 5.85455 4.56364 5.5 4.21818L4.53636 3.25455ZM15.7818 14.5C15.4273 14.1455 14.8455 14.1455 14.5 14.5C14.1455 14.8545 14.1455 15.4364 14.5 15.7818L15.4636 16.7455C15.8182 17.1 16.4 17.1 16.7455 16.7455C17.1 16.3909 17.1 15.8091 16.7455 15.4636L15.7818 14.5ZM16.7455 4.53636C17.1 4.18182 17.1 3.6 16.7455 3.25455C16.3909 2.9 15.8091 2.9 15.4636 3.25455L14.5 4.21818C14.1455 4.57273 14.1455 5.15455 14.5 5.5C14.8545 5.84546 15.4364 5.85455 15.7818 5.5L16.7455 4.53636ZM5.5 15.7818C5.85455 15.4273 5.85455 14.8455 5.5 14.5C5.14545 14.1455 4.56364 14.1455 4.21818 14.5L3.25455 15.4636C2.9 15.8182 2.9 16.4 3.25455 16.7455C3.60909 17.0909 4.19091 17.1 4.53636 16.7455L5.5 15.7818Z"/>
	</symbol>

	<symbol id="arrow" viewBox="0 0 10 6">
		<path d="M9.67861 1.8337L5.77064 5.68539C5.34503 6.10487 4.65497 6.10487 4.22936 5.68539L0.321394 1.8337C-0.365172 1.15702 0.121082 -8.3659e-08 1.09203 0L8.90797 6.73452e-07C9.87892 7.57113e-07 10.3652 1.15702 9.67861 1.8337Z"/>
	</symbol>

	<symbol id="remove" viewBox="0 0 24 24">
		<path fill-rule="evenodd" clip-rule="evenodd" d="M2.36474 1.21893C2.07355 0.924339 1.60144 0.924339 1.31025 1.21893C1.01906 1.51351 1.01906 1.99113 1.31025 2.28572L3.25004 4.24815C3.63511 4.63771 3.63511 5.26457 3.25004 5.65413L1.21644 7.71146C0.92525 8.00604 0.92525 8.48366 1.21644 8.77825C1.50763 9.07284 1.97974 9.07284 2.27093 8.77825L4.28821 6.73743C4.67966 6.34142 5.31917 6.34142 5.71061 6.73743L7.72779 8.77815C8.01898 9.07274 8.49109 9.07274 8.78228 8.77815C9.07347 8.48356 9.07347 8.00594 8.78228 7.71136L6.74879 5.65413C6.36371 5.26457 6.36372 4.63771 6.74879 4.24814L8.68848 2.28582C8.97966 1.99124 8.97967 1.51361 8.68848 1.21903C8.39729 0.92444 7.92517 0.924441 7.63399 1.21903L5.71061 3.16485C5.31917 3.56086 4.67966 3.56086 4.28821 3.16485L2.36474 1.21893Z"/>
	</symbol>

	<symbol id="" viewBox="0 0 24 24">

	</symbol>
</svg>